<?xml version="1.0" encoding="UTF-8"?>
<svg width="65px" height="51px" viewBox="0 0 65 51" version="1.1" xmlns="http://www.w3.org/2000/svg" xmlns:xlink="http://www.w3.org/1999/xlink">
    <!-- Generator: Sketch 48.2 (47327) - http://www.bohemiancoding.com/sketch -->
    <title>Page 1</title>
    <desc>Created with Sketch.</desc>
    <defs></defs>
    <g id="Kitchen-Landing-Page-" stroke="none" stroke-width="1" fill="none" fill-rule="evenodd" transform="translate(-431.000000, -877.000000)">
        <g id="Page-1" transform="translate(431.000000, 877.000000)">
            <path d="M63.8827586,34 L12.1172414,34 C11.5003379,34 11,33.5024995 11,32.8890946 L11,1.11090539 C11,0.497500463 11.5003379,0 12.1172414,0 L63.8827586,0 C64.4996621,0 65,0.497500463 65,1.11090539 L65,32.8890946 C65,33.5024995 64.4996621,34 63.8827586,34" id="Fill-1" fill="#BED8FE"></path>
            <path d="M55.8712871,51 L1.12871287,51 C0.505475248,51 0,50.5087864 0,49.9031329 L0,20.0968671 C0,19.4912136 0.505475248,19 1.12871287,19 L55.8712871,19 C56.4945248,19 57,19.4912136 57,20.0968671 L57,49.9031329 C57,50.5087864 56.4945248,51 55.8712871,51" id="Fill-5" fill="#3978FF"></path>
            <path d="M55.8,15 L1.2,15 C0.5374,15 0,14.5114545 0,13.9090909 L0,10.0909091 C0,9.48854545 0.5374,9 1.2,9 L55.8,9 C56.4626,9 57,9.48854545 57,10.0909091 L57,13.9090909 C57,14.5114545 56.4626,15 55.8,15" id="Fill-7" fill="#3978FF"></path>
            <path d="M45,11.5 C45,12.328375 44.328375,13 43.5,13 C42.671625,13 42,12.328375 42,11.5 C42,10.671625 42.671625,10 43.5,10 C44.328375,10 45,10.671625 45,11.5" id="Fill-9" fill="#7AA7FF"></path>
            <path d="M50,11.5 C50,12.328375 49.328375,13 48.5,13 C47.671625,13 47,12.328375 47,11.5 C47,10.671625 47.671625,10 48.5,10 C49.328375,10 50,10.671625 50,11.5" id="Fill-11" fill="#7AA7FF"></path>
            <path d="M54,11.5 C54,12.328375 53.328375,13 52.5,13 C51.671625,13 51,12.328375 51,11.5 C51,10.671625 51.671625,10 52.5,10 C53.328375,10 54,10.671625 54,11.5" id="Fill-13" fill="#7AA7FF"></path>
            <path d="M26.0952381,41 L8.9047619,41 C8.40518254,41 8,40.6161429 8,40.1428571 L8,25.8571429 C8,25.3838571 8.40518254,25 8.9047619,25 L26.0952381,25 C26.5948175,25 27,25.3838571 27,25.8571429 L27,40.1428571 C27,40.6161429 26.5948175,41 26.0952381,41" id="Fill-15" fill="#F7F7FC"></path>
            <path d="M51.0869565,46 L38.9130435,46 C38.4088913,46 38,45.6293793 38,45.1724138 L38,42.8275862 C38,42.3706207 38.4088913,42 38.9130435,42 L51.0869565,42 C51.5911087,42 52,42.3706207 52,42.8275862 L52,45.1724138 C52,45.6293793 51.5911087,46 51.0869565,46" id="Fill-17" fill="#7AA7FF"></path>
        </g>
    </g>
</svg>