<svg width="65" height="51" viewBox="0 0 65 51" xmlns="http://www.w3.org/2000/svg"><g fill="none" fill-rule="evenodd"><path d="M63.883 34H12.117A1.114 1.114 0 0 1 11 32.89V1.11C11 .499 11.5 0 12.117 0h51.766C64.5 0 65 .498 65 1.11v31.78c0 .612-.5 1.11-1.117 1.11" fill="#BED8FE"/><path d="M55.871 51H1.13C.505 51 0 50.509 0 49.903V20.097C0 19.49.505 19 1.129 19H55.87c.624 0 1.129.491 1.129 1.097v29.806C57 50.51 56.495 51 55.871 51M55.8 15H1.2C.537 15 0 14.511 0 13.91v-3.82C0 9.49.537 9 1.2 9h54.6c.663 0 1.2.489 1.2 1.09v3.82c0 .601-.537 1.09-1.2 1.09" fill="#3978FF"/><path d="M45 11.5a1.5 1.5 0 1 1-3 0 1.5 1.5 0 0 1 3 0m5 0a1.5 1.5 0 1 1-3 0 1.5 1.5 0 0 1 3 0m4 0a1.5 1.5 0 1 1-3 0 1.5 1.5 0 0 1 3 0" fill="#7AA7FF"/><path d="M26.095 41H8.905c-.5 0-.905-.384-.905-.857V25.857c0-.473.405-.857.905-.857h17.19c.5 0 .905.384.905.857v14.286c0 .473-.405.857-.905.857" fill="#F7F7FC"/><path d="M51.087 46H38.913c-.504 0-.913-.37-.913-.828v-2.344c0-.457.409-.828.913-.828h12.174c.504 0 .913.37.913.828v2.344c0 .457-.409.828-.913.828" fill="#7AA7FF"/></g></svg>